<svg id="Layer_5" enable-background="new 0 0 64 64" height="512" viewBox="0 0 64 64" width="512" xmlns="http://www.w3.org/2000/svg"><path d="m32 23c-2.438 0-4.467-1.756-4.906-4.069l1.351.901 1.109-1.664-3.554-2.37-3.555 2.37 1.109 1.664 1.5-1c.414 3.469 3.369 6.168 6.946 6.168 1.964 0 3.85-.833 5.175-2.285l-1.479-1.348c-.946 1.038-2.293 1.633-3.696 1.633z"/><path d="m38.946 17.168c-.414-3.469-3.369-6.168-6.946-6.168-2.029 0-3.957.879-5.287 2.413l1.51 1.311c.951-1.096 2.328-1.724 3.777-1.724 2.438 0 4.467 1.756 4.906 4.069l-1.351-.901-1.109 1.664 3.554 2.37 3.555-2.37-1.109-1.664z"/><path d="m51 21h2c0-2.206-1.794-4-4-4v2c1.103 0 2 .897 2 2z"/><path d="m13 23h2v2h-2z"/><path d="m17 23h2v2h-2z"/><path d="m21 23h2v2h-2z"/><path d="m58.333 38h-2.333v-4c0-1.654-1.346-3-3-3h-13c-.552 0-1-.449-1-1v-1h10c4.411 0 8-3.589 8-8s-3.589-8-8-8c-.02 0-.039.003-.058.004-.498-4.495-4.316-8.004-8.942-8.004-1.487 0-2.93.362-4.228 1.056-2.238-3.141-5.896-5.056-9.772-5.056-6.617 0-12 5.383-12 12 0 .023.002.046.003.069-3.942.493-7.003 3.858-7.003 7.931 0 4.411 3.589 8 8 8h10v1c0 .551-.448 1-1 1h-11c-1.654 0-3 1.346-3 3v1h-6c-1.654 0-3 1.346-3 3v10c0 1.654 1.346 3 3 3h14c1.654 0 3-1.346 3-3v-10c0-1.654-1.346-3-3-3h-6v-1c0-.552.448-1 1-1h11c1.654 0 3-1.346 3-3v-1h4v4.069c-3.94.495-7 3.859-7 7.931 0 2.78 1.427 5.231 3.585 6.665-6.123 1.89-10.585 7.6-10.585 14.335v1h30v-1c0-6.735-4.462-12.445-10.585-14.335 2.158-1.434 3.585-3.885 3.585-6.665 0-4.072-3.06-7.436-7-7.931v-4.069h4v1c0 1.654 1.346 3 3 3h13c.552 0 1 .448 1 1v4h-7v16h16v-12.5zm-39.333 0v10c0 .552-.448 1-1 1h-14c-.552 0-1-.448-1-1v-10c0-.552.448-1 1-1h14c.552 0 1 .448 1 1zm18.56 12.264c.361.172.713.359 1.055.563l-.5 2.498-2.134 1.067zm-1.706 4.46 1.001 3.006-3.269 3.27h-.133zm-5.44 6.276-3.27-3.271 1.001-3.005 2.402 6.276zm-2.396-6.609-2.133-1.067-.5-2.498c.342-.203.693-.391 1.054-.562zm-4.417-2.288.515 2.573 1.662.831-.922 2.764 2.73 2.729h-3.586v-4h-2v4h-2.962c.272-3.56 1.993-6.713 4.563-8.897zm21.361 8.897h-2.962v-4h-2v4h-3.586l2.73-2.729-.922-2.764 1.662-.831.515-2.573c2.57 2.184 4.291 5.337 4.563 8.897zm-9.264-11.464-3.698 9.667-3.699-9.666c1.173-.349 2.414-.537 3.699-.537 1.284 0 2.525.188 3.698.536zm2.302-8.536c0 3.309-2.691 6-6 6s-6-2.691-6-6 2.691-6 6-6 6 2.691 6 6zm-29-20c0-3.02 2.244-5.518 5.186-5.933.277 1.591.866 3.114 1.756 4.479l1.676-1.092c-1.058-1.622-1.618-3.508-1.618-5.454 0-5.514 4.486-10 10-10 3.51 0 6.807 1.886 8.604 4.923l.546.923.883-.609c1.171-.809 2.543-1.237 3.967-1.237 3.612 0 6.594 2.751 6.961 6.269-1.853.488-3.494 1.628-4.595 3.258l1.658 1.119c1.12-1.657 2.979-2.646 4.976-2.646 3.309 0 6 2.691 6 6s-2.691 6-6 6h-34c-3.309 0-6-2.691-6-6zm44 19h4v2h-4zm8 12h-12v-12h2v4h8v-3l2 1.5z"/><path d="m51 48h8v2h-8z"/><path d="m17 45h-2v-2h-2v2h-2v-4h-2v4h-2v-6h-2v8h12z"/></svg>