<svg id="Layer_5" enable-background="new 0 0 64 64" height="512" viewBox="0 0 64 64" width="512" xmlns="http://www.w3.org/2000/svg"><path d="m32 12c-2.757 0-5 2.243-5 5s2.243 5 5 5 5-2.243 5-5-2.243-5-5-5zm0 8c-1.654 0-3-1.346-3-3s1.346-3 3-3 3 1.346 3 3-1.346 3-3 3z"/><path d="m60 53c-1.302 0-2.402.839-2.816 2h-12.184c-.552 0-1-.449-1-1v-5.349l2.093-1.944c.32 1.312 1.497 2.293 2.907 2.293h6.184c.414 1.161 1.514 2 2.816 2 1.654 0 3-1.346 3-3s-1.346-3-3-3c-1.302 0-2.402.839-2.816 2h-6.184c-.552 0-1-.449-1-1v-1.064l5.791-5.377c.769-.714 1.209-1.725 1.209-2.774 0-2.087-1.698-3.785-3.785-3.785h-.146c-.936 0-1.835.345-2.532.972l-.537.482v-5.454h1c2.398 0 4.649-1.062 6.176-2.915 1.526-1.851 2.135-4.286 1.669-6.681-.616-3.172-3.171-5.692-6.355-6.27-.523-.095-1.042-.126-1.557-.122.037-.335.067-.672.067-1.012 0-4.962-4.037-9-9-9-1.918 0-3.768.611-5.304 1.738-2.262-2.387-5.38-3.738-8.696-3.738-6.617 0-12 5.383-12 12 0 .023.002.045.002.068-1.8.222-3.458 1.036-4.744 2.36-1.52 1.566-2.32 3.632-2.256 5.817.13 4.276 3.85 7.755 8.292 7.755h.706v5.454l-.536-.483c-.697-.626-1.597-.971-2.533-.971h-.146c-2.087 0-3.785 1.698-3.785 3.785 0 1.049.44 2.06 1.209 2.774l5.791 5.378v1.063c0 .551-.448 1-1 1h-6.184c-.414-1.161-1.514-2-2.816-2-1.654 0-3 1.346-3 3s1.346 3 3 3c1.302 0 2.402-.839 2.816-2h6.184c1.41 0 2.587-.98 2.907-2.293l2.093 1.944v5.349c0 .551-.448 1-1 1h-12.184c-.414-1.161-1.514-2-2.816-2-1.654 0-3 1.346-3 3s1.346 3 3 3c1.302 0 2.402-.839 2.816-2h12.184c1.654 0 3-1.346 3-3v-3.364c.637.857 1 1.9 1 2.98v9.384h18v-9.384c0-1.08.363-2.124 1-2.98v3.364c0 1.654 1.346 3 3 3h12.184c.414 1.161 1.514 2 2.816 2 1.654 0 3-1.346 3-3s-1.346-3-3-3zm-2-6c.552 0 1 .449 1 1s-.448 1-1 1-1-.449-1-1 .448-1 1-1zm-52 2c-.552 0-1-.449-1-1s.448-1 1-1 1 .449 1 1-.448 1-1 1zm-2 8c-.552 0-1-.449-1-1s.448-1 1-1 1 .449 1 1-.448 1-1 1zm42-20.746-2 1.8v-8.054c0-.551.448-1 1-1h1zm-7.675-22.236c.094.2.18.406.255.616l.139.389 1.281.609v2.736l-1.281.609-.139.389c-.075.21-.161.416-.255.616l-.175.372.475 1.335-1.936 1.935-1.336-.475-.373.176c-.201.095-.406.179-.616.255l-.388.14-.608 1.28h-2.736l-.608-1.28-.388-.14c-.21-.076-.415-.16-.616-.255l-.373-.176-1.336.475-1.936-1.935.475-1.335-.175-.372c-.094-.2-.18-.406-.255-.616l-.139-.389-1.281-.609v-2.736l1.281-.609.139-.389c.075-.21.161-.416.255-.616l.175-.372-.475-1.335 1.936-1.935 1.336.475.373-.176c.201-.095.406-.179.616-.255l.388-.14.608-1.28h2.736l.608 1.28.388.14c.21.076.415.16.616.255l.373.176 1.336-.475 1.936 1.935-.475 1.335zm-29.322 7.168c-.05-1.64.552-3.19 1.691-4.364.941-.97 2.151-1.573 3.49-1.756.281 1.616.883 3.16 1.797 4.542l1.668-1.103c-1.079-1.634-1.649-3.537-1.649-5.505 0-5.514 4.486-10 10-10 3.045 0 5.889 1.368 7.801 3.752l.198.248h-4.631l-.804 1.689c-.004.001-.008.003-.012.005l-1.764-.626-3.721 3.722.626 1.763c-.002.004-.004.008-.005.012l-1.688.803v5.264l1.689.803c.001.004.003.008.005.012l-.626 1.763 3.721 3.722 1.764-.626c.004.001.008.003.012.005l.803 1.689h5.264l.804-1.689c.004-.001.008-.003.012-.005l1.764.626 3.721-3.722-.626-1.763c.002-.004.004-.008.005-.012l1.688-.803v-5.264l-1.689-.803c-.001-.004-.003-.008-.005-.012l.626-1.763-3.721-3.722-1.764.626c-.004-.001-.008-.003-.012-.005l-.658-1.383.482-.445c1.301-1.2 2.984-1.861 4.741-1.861 3.859 0 7 3.14 7 7 0 .437-.055.868-.134 1.293-1.284.353-2.472 1.021-3.464 1.991l1.4 1.429c1.41-1.382 3.353-1.967 5.329-1.61 2.381.432 4.289 2.314 4.75 4.684.351 1.806-.104 3.638-1.249 5.027s-2.833 2.186-4.632 2.186h-4c-1.654 0-3 1.346-3 3v9.855l-.406.366c-1.013.911-2.205 1.57-3.496 1.946 1.184-1.396 1.902-3.198 1.902-5.167 0-4.411-3.589-8-8-8s-8 3.589-8 8c0 1.969.718 3.771 1.903 5.167-1.292-.377-2.484-1.035-3.496-1.946l-.407-.366v-9.855c0-1.654-1.346-3-3-3h-3.706c-3.373 0-6.195-2.608-6.291-5.814zm22.997 26.094-1.692-2.368.55.079 1.037.005c.036-.001.07.004.105.004.029 0 .057-.004.086-.004l.914.004.698-.098zm0-4.28c-3.309 0-6-2.691-6-6s2.691-6 6-6 6 2.691 6 6-2.691 6-6 6zm-4.429 1.52 3.189 4.465-1.372 1.83-1.893-6.306zm8.859-.002.074-.01-1.893 6.307-1.372-1.83zm-18.43-15.518h1c.552 0 1 .449 1 1v8.055l-2-1.8zm21 24.616v7.384h-14v-7.384c0-1.94-.815-3.81-2.236-5.129l-11.194-10.393c-.362-.337-.57-.814-.57-1.309 0-.984.801-1.785 1.785-1.785h.146c.442 0 .867.163 1.195.458l6.942 6.25c1.221 1.098 2.654 1.9 4.208 2.363l3.335 11.114 3.389-4.518 3.389 4.518 3.335-11.114c1.554-.463 2.987-1.266 4.208-2.364l6.942-6.249c.328-.295.753-.458 1.194-.458h.146c.985 0 1.786.801 1.786 1.785 0 .495-.208.972-.57 1.309l-11.194 10.393c-1.421 1.32-2.236 3.189-2.236 5.129zm21 3.384c-.552 0-1-.449-1-1s.448-1 1-1 1 .449 1 1-.448 1-1 1z"/></svg>