<svg id="Layer_5" enable-background="new 0 0 64 64" height="512" viewBox="0 0 64 64" width="512" xmlns="http://www.w3.org/2000/svg"><path d="m60 46h-6c-1.654 0-3 1.346-3 3v4c0 1.654 1.346 3 3 3h2v1c0 .552-.449 1-1 1h-8c0-1.383-.945-2.539-2.22-2.884.139-.346.22-.721.22-1.116s-.081-.77-.22-1.116c1.275-.346 2.22-1.501 2.22-2.884v-2c0-1.383-.945-2.539-2.22-2.884.139-.346.22-.721.22-1.116s-.081-.77-.22-1.116c1.275-.346 2.22-1.501 2.22-2.884v-2c0-1.654-1.346-3-3-3h-1v-2h11c4.962 0 9-4.038 9-9s-4.038-9-9-9c-.426 0-.847.039-1.263.098-1.389-8.107-8.393-14.098-16.737-14.098-6.857 0-13.017 4.139-15.655 10.405-.75-.266-1.545-.405-2.345-.405-2.773 0-5.269 1.671-6.381 4.154-.526-.096-1.066-.154-1.619-.154-4.962 0-9 4.038-9 9s4.038 9 9 9h11v2h-1c-1.654 0-3 1.346-3 3h-4v-1c0-1.654-1.346-3-3-3h-6c-1.654 0-3 1.346-3 3v4c0 1.654 1.346 3 3 3h6c1.654 0 3-1.346 3-3v-1h4c0 1.383.945 2.539 2.22 2.884-.139.346-.22.721-.22 1.116s.081.77.22 1.116c-1.275.345-2.22 1.501-2.22 2.884h-8c-1.654 0-3 1.346-3 3v1h-2c-1.654 0-3 1.346-3 3v4c0 1.654 1.346 3 3 3h6c1.654 0 3-1.346 3-3v-4c0-1.654-1.346-3-3-3h-2v-1c0-.552.449-1 1-1h8c0 1.383.945 2.539 2.22 2.884-.139.346-.22.721-.22 1.116s.081.77.22 1.116c-1.275.345-2.22 1.501-2.22 2.884v2c0 1.654 1.346 3 3 3h24c1.654 0 3-1.346 3-3h8c1.654 0 3-1.346 3-3v-1h2c1.654 0 3-1.346 3-3v-4c0-1.654-1.346-3-3-3zm-49-5c0 .552-.449 1-1 1h-6c-.551 0-1-.448-1-1v-4c0-.552.449-1 1-1h6c.551 0 1 .448 1 1zm0 14v4c0 .552-.449 1-1 1h-6c-.551 0-1-.448-1-1v-4c0-.552.449-1 1-1h6c.551 0 1 .448 1 1zm19.503-8.419c-1.185-.689-1.737-2.003-1.409-3.348.255-1.042 1.128-1.905 2.173-2.148.249-.058.496-.086.739-.086.677 0 1.318.222 1.857.649.723.575 1.137 1.431 1.137 2.352 0 1.068-.562 2.033-1.503 2.581l-.497.289v9.13c0 .552-.449 1-1 1s-1-.448-1-1v-9.13zm-1.503 8.419h-7c-.551 0-1-.448-1-1s.449-1 1-1h7zm6-2h7c.551 0 1 .448 1 1s-.449 1-1 1h-7zm10-3c0 .552-.449 1-1 1h-2-7v-3.021c.373-.281.695-.615.973-.979h6.027 2c.551 0 1 .448 1 1zm-8.105-7h5.105c.551 0 1 .448 1 1s-.449 1-1 1h-5.11c.068-.327.11-.661.11-1 0-.34-.039-.674-.105-1zm-26.895-12c-3.86 0-7-3.14-7-7s3.14-7 7-7 7 3.14 7 7h2c0-3.701-2.248-6.886-5.449-8.267.843-1.643 2.556-2.733 4.449-2.733.844 0 1.679.215 2.416.624l1.039.575.39-1.122c2.096-6.027 7.785-10.077 14.155-10.077 7.415 0 13.629 5.362 14.792 12.592-.999.381-1.93.939-2.744 1.658l1.323 1.499c1.278-1.128 2.922-1.749 4.629-1.749 3.86 0 7 3.14 7 7s-3.14 7-7 7h-11v-3c0-6.065-4.935-11-11-11s-11 4.935-11 11v3zm13-3c0-4.962 4.038-9 9-9s9 4.038 9 9v7h-2v-7c0-3.86-3.14-7-7-7s-7 3.14-7 7v7h-2zm14 3h-10v-3c0-2.757 2.243-5 5-5s5 2.243 5 5zm-10 2h10v2h-10zm-8 5c0-.552.449-1 1-1h24c.551 0 1 .448 1 1v2c0 .552-.449 1-1 1h-2-6.006c-.254-.337-.547-.647-.887-.917-1.203-.955-2.769-1.304-4.293-.945-1.142.266-2.138.944-2.824 1.862h-5.99-2c-.551 0-1-.448-1-1zm2 6c0-.552.449-1 1-1h5.111c-.133.678-.136 1.356-.003 2h-5.108c-.551 0-1-.448-1-1zm-2 4c0-.552.449-1 1-1h2 6.02c.277.365.602.697.98.98v3.02h-7-2c-.551 0-1-.448-1-1zm26 12c0 .552-.449 1-1 1h-24c-.551 0-1-.448-1-1v-2c0-.552.449-1 1-1h2 7.184c.414 1.161 1.514 2 2.816 2s2.402-.839 2.816-2h7.184 2c.551 0 1 .448 1 1zm16-7c0 .552-.449 1-1 1h-6c-.551 0-1-.448-1-1v-4c0-.552.449-1 1-1h6c.551 0 1 .448 1 1z"/><path d="m55 50h4v2h-4z"/><path d="m5 56h4v2h-4z"/><path d="m5 38h4v2h-4z"/><path d="m46.084 13.598 1.832-.802c-2.071-4.736-6.748-7.796-11.916-7.796v2c4.373 0 8.331 2.59 10.084 6.598z"/><path d="m59 24c0-2.757-2.243-5-5-5v2c1.654 0 3 1.346 3 3s-1.346 3-3 3h-1v2h1c2.757 0 5-2.243 5-5z"/><path d="m49 27h2v2h-2z"/><path d="m45 27h2v2h-2z"/><path d="m5 24h2c0-1.654 1.346-3 3-3v-2c-2.757 0-5 2.243-5 5z"/></svg>