<svg height="512" viewBox="0 0 60 60" width="512" xmlns="http://www.w3.org/2000/svg"><g id="Page-1" fill="none" fill-rule="evenodd"><g id="016---Online-Trading" fill="rgb(0,0,0)" fill-rule="nonzero"><path id="Shape" d="m30 0c-16.5685425 0-30 13.4314575-30 30s13.4314575 30 30 30 30-13.4314575 30-30c-.018737-16.5607751-13.4392249-29.98126296-30-30zm20.206 10.646c-1.7894148.8100144-3.6260874 1.5112894-5.5 2.1-1.4395977-3.66071385-3.7155653-6.93391548-6.646-9.558 4.6236091 1.39800833 8.8075179 3.96705094 12.146 7.458zm-20.206 35.354c-8.836556 0-16-7.163444-16-16s7.163444-16 16-16 16 7.163444 16 16c-.0104696 8.8322157-7.1677843 15.9895304-16 16zm11.019-30.2c.8533333-.188 1.701-.3976667 2.543-.629.5576769 1.566712 1.015265 3.1672683 1.37 4.792-1.075716-1.5860728-2.3964999-2.991241-3.913-4.163zm-2.356-1.567c-2.35757-1.2947649-4.9770051-2.0406356-7.663-2.182v-9.991c4.837.525 9.1 4.823 11.832 11.234-1.374.372-2.7636667.6843333-4.169.937zm-9.663-12.173v9.991c-2.6858374.1407482-5.3052633.8859327-7.663 2.18-1.404-.2506667-2.7936667-.563-4.169-.937 2.732-6.411 6.995-10.709 11.832-11.234zm-10.019 13.74c-1.5165001 1.171759-2.837284 2.5769272-3.913 4.163.354735-1.6247317.8123231-3.225288 1.37-4.792.8413333.2306667 1.689.4403333 2.543.629zm-6.966 13.2h-9.99c.21201709-6.1502268 2.45356498-12.0573648 6.375-16.8 1.9975557.9360051 4.0538998 1.741039 6.156 2.41-1.6180005 4.628113-2.4761003 9.487639-2.541 14.39zm0 2c.0649013 4.9012975.9226585 9.7597831 2.54 14.387-2.1018335.6699782-4.1578438 1.4760144-6.155 2.413-3.92143502-4.7426352-6.16298291-10.6497732-6.375-16.8zm3.053 9.039c1.075883 1.5853613 2.3966584 2.9898455 3.913 4.161-.8533333.188-1.701.3976667-2.543.629-.5575957-1.5660584-1.0151831-3.1659443-1.37-4.79zm6.269 5.73c2.3577367 1.2940673 4.9771626 2.0392518 7.663 2.18v9.991c-4.837-.525-9.1-4.823-11.832-11.234 1.374-.372 2.7636667-.6843333 4.169-.937zm9.663 12.171v-9.991c2.6858374-.1407482 5.3052633-.8859327 7.663-2.18 1.404.2513333 2.7936667.5636667 4.169.937-2.732 6.411-6.995 10.709-11.832 11.234zm10.019-13.74c1.5165001-1.171759 2.837284-2.5769272 3.913-4.163-.354735 1.6247317-.8123231 3.225288-1.37 4.792-.8413333-.2306667-1.689-.4403333-2.543-.629zm6.966-13.2h9.99c-.2120171 6.1502268-2.453565 12.0573648-6.375 16.8-1.9975557-.9360051-4.0538998-1.741039-6.156-2.41 1.6180005-4.628113 2.4761003-9.487639 2.541-14.39zm0-2c-.0649013-4.9012975-.9226585-9.7597831-2.54-14.387 2.1018335-.6699782 4.1578438-1.4760144 6.155-2.413 3.921435 4.7426352 6.1629829 10.6497732 6.375 16.8zm-26.045-25.812c-2.9322512 2.62354185-5.2099616 5.89678744-6.651 9.558-1.8722165-.5889001-3.7072141-1.290173-5.495-2.1 3.3384821-3.49094906 7.5223909-6.05999167 12.146-7.458zm-12.146 46.166c1.7877859-.809827 3.6227835-1.5110999 5.495-2.1 1.4410384 3.6612126 3.7187488 6.9344582 6.651 9.558-4.6236091-1.3980083-8.8075179-3.9670509-12.146-7.458zm28.266 7.458c2.9322512-2.6235418 5.2099616-5.8967874 6.651-9.558 1.8739126.5887106 3.7105852 1.2899856 5.5 2.1-3.3398805 3.4916778-7.5255953 6.0607718-12.151 7.458z"/><path id="Shape" d="m24.708 29.981c.3377683-.00063.6712817-.075389.977-.219.705107-.3263786 1.1935926-.9915344 1.294-1.762h7.021c1.6568542 0 3-1.3431458 3-3v-2c0-1.6568542-1.3431458-3-3-3h-7.021c-.1116729-.8241394-.6621219-1.5226089-1.4373251-1.8238343-.7752031-.3012253-1.6528404-.1576759-2.2916749.3748343l-4.438 3.7c-.5149146.4381828-.8109458 1.0807335-.8094048 1.7568539.001541.6761205.3004981 1.317315.8174048 1.7531461l4.43 3.69c.409023.3418079.9249596.5293569 1.458.53zm-4.708-5.981c-.0005807-.0850305.0359327-.1660902.1-.222l4.429-3.689c.0493527-.044026.1128737-.0688666.179-.07.0440218.0005602.0873808.0108024.127.03.10368.0439645.1693651.1474684.165.26v.691c0 .5522847.4477153 1 1 1h8c.5522847 0 1 .4477153 1 1v2c0 .5522847-.4477153 1-1 1h-8c-.5522847 0-1 .4477153-1 1v.691c.0002893.1115584-.0640938.2131767-.1650876.2605645-.1009938.0473877-.2202975.0319579-.3059124-.0395645l-4.421-3.683c-.0680258-.0566586-.1075527-.1404704-.108-.229z"/><path id="Shape" d="m41.18 34.242-4.43-3.691c-.6388345-.5325102-1.5164718-.6760596-2.2916749-.3748343-.7752032.3012254-1.3256522.9996949-1.4373251 1.8238343h-7.021c-1.6568542 0-3 1.3431458-3 3v2c0 1.6568542 1.3431458 3 3 3h7.021c.1004074.7704656.588893 1.4356214 1.294 1.762.3057183.143611.6392317.21837.977.219.5332896-.0012041 1.0492542-.189471 1.458-.532l4.438-3.7c.5145611-.438181.8103556-1.080503.8088147-1.7563531-.0015408-.6758501-.300261-1.3168167-.8168147-1.7526469zm-1.28 1.98-4.429 3.689c-.0854761.0714059-.2045468.0869108-.3054589.0397757-.1009121-.0471352-.1654415-.1483981-.1655411-.2597757v-.691c0-.5522847-.4477153-1-1-1h-8c-.5522847 0-1-.4477153-1-1v-2c0-.5522847.4477153-1 1-1h8c.5522847 0 1-.4477153 1-1v-.691c-.0002893-.1115584.0640938-.2131767.1650876-.2605645.1009938-.0473877.2202975-.0319579.3059124.0395645l4.421 3.684c.0677596.0564335.1072589.1398208.108.228.0005807.0850305-.0359327.1660902-.1.222z"/></g></g></svg>