<svg width="64" height="64" viewBox="0 0 64 64" fill="none" xmlns="http://www.w3.org/2000/svg">
<mask id="mask0" mask-type="alpha" maskUnits="userSpaceOnUse" x="0" y="0" width="64" height="64">
<path d="M32 64C49.6731 64 64 49.6731 64 32C64 14.3269 49.6731 0 32 0C14.3269 0 0 14.3269 0 32C0 49.6731 14.3269 64 32 64Z" fill="white"/>
</mask>
<g mask="url(#mask0)">
<path d="M64 0H0V64H64V0Z" fill="#758696"/>
<g filter="url(#filter0_d)">
<path d="M48.2909 50.5423L39.6517 46.3394C38.8369 45.9425 38.3304 45.1453 38.3304 44.2582V41.2829C38.5375 41.0365 38.7555 40.7558 38.9807 40.4461C40.1011 38.9061 40.9992 37.1918 41.6521 35.3429C42.9281 34.7736 43.7565 33.546 43.7565 32.16V28.64C43.7565 27.7925 43.431 26.9715 42.8522 26.33V21.6493C42.9028 21.1653 43.1018 18.2841 40.9603 15.9073C39.1027 13.8454 36.0886 12.8 32 12.8C27.9114 12.8 24.8973 13.8454 23.0397 15.9064C20.8982 18.2833 21.0972 21.1653 21.1478 21.6493V26.33C20.569 26.9715 20.2435 27.7925 20.2435 28.64V32.16C20.2435 33.2309 20.7436 34.2297 21.5973 34.8959C22.4257 38.0877 24.1593 40.4927 24.7652 41.2645V44.1764C24.7652 45.0282 24.2877 45.8097 23.5199 46.218L15.4522 50.5001C12.8287 51.8931 11.2 54.563 11.2 57.4705V60.32C11.2 64.4965 24.8059 65.6 32 65.6C39.1941 65.6 52.8 64.4965 52.8 60.32V57.6421C52.8 54.6167 51.0718 51.8957 48.2909 50.5423Z" fill="black"/>
</g>
<path d="M48.2909 50.5423L39.6517 46.3394C38.8369 45.9425 38.3304 45.1453 38.3304 44.2582V41.2829C38.5375 41.0365 38.7555 40.7558 38.9807 40.4461C40.1011 38.9061 40.9992 37.1918 41.6521 35.3429C42.9281 34.7736 43.7565 33.546 43.7565 32.16V28.64C43.7565 27.7925 43.431 26.9715 42.8522 26.33V21.6493C42.9028 21.1653 43.1018 18.2841 40.9603 15.9073C39.1027 13.8454 36.0886 12.8 32 12.8C27.9114 12.8 24.8973 13.8454 23.0397 15.9064C20.8982 18.2833 21.0972 21.1653 21.1478 21.6493V26.33C20.569 26.9715 20.2435 27.7925 20.2435 28.64V32.16C20.2435 33.2309 20.7436 34.2297 21.5973 34.8959C22.4257 38.0877 24.1593 40.4927 24.7652 41.2645V44.1764C24.7652 45.0282 24.2877 45.8097 23.5199 46.218L15.4522 50.5001C12.8287 51.8931 11.2 54.563 11.2 57.4705V60.32C11.2 64.4965 24.8059 65.6 32 65.6C39.1941 65.6 52.8 64.4965 52.8 60.32V57.6421C52.8 54.6167 51.0718 51.8957 48.2909 50.5423Z" fill="white"/>
</g>
<defs>
<filter id="filter0_d" x="3.2" y="8.79999" width="57.6" height="68.8" filterUnits="userSpaceOnUse" color-interpolation-filters="sRGB">
<feFlood flood-opacity="0" result="BackgroundImageFix"/>
<feColorMatrix in="SourceAlpha" type="matrix" values="0 0 0 0 0 0 0 0 0 0 0 0 0 0 0 0 0 0 127 0"/>
<feOffset dy="4"/>
<feGaussianBlur stdDeviation="4"/>
<feColorMatrix type="matrix" values="0 0 0 0 0 0 0 0 0 0 0 0 0 0 0 0 0 0 0.161458 0"/>
<feBlend mode="normal" in2="BackgroundImageFix" result="effect1_dropShadow"/>
<feBlend mode="normal" in="SourceGraphic" in2="effect1_dropShadow" result="shape"/>
</filter>
</defs>
</svg>
