<svg width="299" height="135" viewBox="0 0 299 135" fill="none" xmlns="http://www.w3.org/2000/svg">
<path d="M117.032 76.7988C116.531 82.1081 114.571 86.2552 111.153 89.2402C107.735 92.2025 103.189 93.6836 97.5156 93.6836C93.5508 93.6836 90.0531 92.7493 87.0225 90.8809C84.0146 88.9896 81.6904 86.3122 80.0498 82.8486C78.4092 79.3851 77.5547 75.3633 77.4863 70.7832V66.1348C77.4863 61.4408 78.318 57.305 79.9814 53.7275C81.6449 50.1501 84.026 47.3929 87.125 45.4561C90.2467 43.5192 93.847 42.5508 97.9258 42.5508C103.417 42.5508 107.838 44.0433 111.188 47.0283C114.537 50.0133 116.485 54.2288 117.032 59.6748H108.419C108.009 56.0973 106.961 53.5225 105.274 51.9502C103.611 50.3551 101.161 49.5576 97.9258 49.5576C94.166 49.5576 91.2721 50.9362 89.2441 53.6934C87.2389 56.4277 86.2135 60.4495 86.168 65.7588V70.168C86.168 75.5456 87.125 79.6471 89.0391 82.4727C90.9759 85.2982 93.8014 86.7109 97.5156 86.7109C100.911 86.7109 103.463 85.9476 105.172 84.4209C106.881 82.8942 107.963 80.3535 108.419 76.7988H117.032ZM143.077 73.8252H133.438V93H124.791V43.2344H142.291C148.033 43.2344 152.465 44.5218 155.587 47.0967C158.709 49.6715 160.27 53.3971 160.27 58.2734C160.27 61.6003 159.461 64.3916 157.843 66.6475C156.248 68.8805 154.015 70.6009 151.144 71.8086L162.32 92.5557V93H153.058L143.077 73.8252ZM133.438 66.8867H142.325C145.242 66.8867 147.521 66.1576 149.161 64.6992C150.802 63.2181 151.622 61.2015 151.622 58.6494C151.622 55.9834 150.859 53.9212 149.332 52.4629C147.828 51.0046 145.572 50.2526 142.564 50.207H133.438V66.8867ZM183.067 66.8184L194.518 43.2344H204.088L187.408 74.6797V93H178.727V74.6797L162.013 43.2344H171.617L183.067 66.8184ZM218.136 74.5088V93H209.488V43.2344H228.526C234.086 43.2344 238.495 44.6813 241.754 47.5752C245.035 50.4691 246.676 54.2972 246.676 59.0596C246.676 63.9359 245.069 67.7298 241.856 70.4414C238.666 73.153 234.189 74.5088 228.424 74.5088H218.136ZM218.136 67.5703H228.526C231.603 67.5703 233.95 66.8525 235.567 65.417C237.185 63.9587 237.994 61.8623 237.994 59.1279C237.994 56.4391 237.174 54.2972 235.533 52.7021C233.893 51.0843 231.637 50.2526 228.766 50.207H218.136V67.5703ZM293.98 69.416C293.98 74.2923 293.137 78.5762 291.451 82.2676C289.765 85.9362 287.35 88.7617 284.205 90.7441C281.083 92.7038 277.483 93.6836 273.404 93.6836C269.371 93.6836 265.771 92.7038 262.604 90.7441C259.459 88.7617 257.021 85.9476 255.289 82.3018C253.58 78.6559 252.714 74.4518 252.691 69.6895V66.8867C252.691 62.0332 253.546 57.7493 255.255 54.0352C256.987 50.321 259.413 47.484 262.535 45.5244C265.68 43.542 269.28 42.5508 273.336 42.5508C277.392 42.5508 280.981 43.5306 284.103 45.4902C287.247 47.4271 289.674 50.2298 291.383 53.8984C293.092 57.5443 293.958 61.7939 293.98 66.6475V69.416ZM285.333 66.8184C285.333 61.304 284.285 57.0771 282.188 54.1377C280.115 51.1982 277.164 49.7285 273.336 49.7285C269.599 49.7285 266.671 51.1982 264.552 54.1377C262.455 57.0544 261.384 61.1901 261.339 66.5449V69.416C261.339 74.8848 262.398 79.1117 264.518 82.0967C266.66 85.0817 269.622 86.5742 273.404 86.5742C277.232 86.5742 280.172 85.1159 282.223 82.1992C284.296 79.2826 285.333 75.0215 285.333 69.416V66.8184Z" fill="white"/>
<rect x="32.2518" y="48.9014" width="22.7481" height="67.6054" fill="#26DE81"/>
<line x1="42.8621" y1="32" x2="42.8621" y2="49.5597" stroke="#26DE81"/>
<line x1="42.8621" y1="116.507" x2="42.8621" y2="134.067" stroke="#26DE81"/>
<rect y="16.9014" width="22.7481" height="67.6054" fill="#FF231F"/>
<line x1="10.6104" y1="8.64691e-09" x2="10.6103" y2="17.5597" stroke="#FF231F"/>
<line x1="10.6104" y1="84.5068" x2="10.6104" y2="102.067" stroke="#FF231F"/>
</svg>
